<?xml version="1.0" encoding="UTF-8" standalone="no"?>
<!-- Created with Inkscape (http://www.inkscape.org/) -->

<svg
   width="66.145828mm"
   height="26.458334mm"
   viewBox="0 0 66.145828 26.458334"
   version="1.1"
   id="svg1"
   xml:space="preserve"
   xmlns="http://www.w3.org/2000/svg"
   xmlns:svg="http://www.w3.org/2000/svg"><defs
     id="defs1" /><g
     id="layer1"
     transform="translate(-6.7118646,-89.938978)"><path
       id="rect2-6"
       style="fill:#000000;fill-opacity:1;stroke-width:0;stroke-linecap:round;stroke-linejoin:round;paint-order:markers stroke fill"
       d="m 6.7118645,89.93898 v 26.45333 h 2.9620931 l 21.8229584,-1.5872 h 1.597835 v 0.005 l 21.822957,1.5872 v -0.005 h 2.96261 v -3.50351 h -2.96261 v 1.91115 l -21.822957,-1.5872 v -2.32707 h -1.597835 v 2.3219 l -21.8229584,1.5872 V 91.53703 l 21.8229584,1.5872 v 2.3219 h 1.597835 v -2.3219 l 8.831502,-0.64222 v 3.42137 l 2.253608,-1.5872 2.25361,1.5872 v -3.74946 l 8.484237,-0.61689 v 1.90598 h 2.96261 v -3.50403 h -2.96261 l -21.822957,1.5872 H 31.496915 L 9.6739576,89.93898 Z m 43.0971105,5.67145 v 14.91616 h 2.96261 V 95.61043 Z m 5.108733,0 v 14.91616 h 2.96261 V 95.61043 Z m -42.852681,0.77706 v 14.1391 h 3.011185 v -8.79779 l 4.001307,8.79779 h 3.021004 v -14.1391 h -3.001368 v 8.84689 l -4.011641,-8.84689 z m 22.320084,1.02921 v 2.60296 h -1.126546 v 2.16535 h 1.126546 v 5.37024 c 0,0.75098 0.113399,1.35925 0.340031,1.82538 0.233107,0.46614 0.556588,0.80627 0.971,1.01989 0.420889,0.21366 0.925911,0.32035 1.515153,0.32035 0.317285,0 0.602196,-0.0257 0.854729,-0.0775 0.259007,-0.0453 0.502006,-0.1101 0.728637,-0.19428 l 0.01964,-2.23354 c -0.07123,0.0195 -0.162256,0.0357 -0.272334,0.0486 -0.103603,0.0129 -0.229859,0.0191 -0.378789,0.0191 -0.207207,0 -0.372032,-0.0291 -0.49506,-0.0873 -0.12303,-0.0647 -0.210716,-0.17477 -0.262516,-0.33014 -0.04533,-0.15539 -0.0677,-0.37546 -0.0677,-0.66031 v -5.02045 h 1.389062 v -2.16535 h -1.389062 v -2.60296 z m -6.313309,2.40869 c -0.64752,0 -1.236885,0.11005 -1.767851,0.33015 -0.524491,0.21364 -0.974227,0.53089 -1.349789,0.9517 -0.37556,0.42081 -0.667158,0.94475 -0.874365,1.57273 -0.200732,0.62799 -0.301273,1.35632 -0.301273,2.185 v 0.82562 c 0,0.8222 0.100542,1.54719 0.301273,2.17518 0.207207,0.62797 0.498805,1.15578 0.874365,1.58306 0.382038,0.42082 0.835117,0.73807 1.359607,0.95169 0.530967,0.21366 1.123675,0.32035 1.77767,0.32035 0.647518,0 1.233024,-0.10669 1.757515,-0.32035 0.530966,-0.21362 0.984563,-0.53087 1.360124,-0.95169 0.375561,-0.42728 0.663815,-0.95509 0.864547,-1.58306 0.207204,-0.62799 0.310575,-1.35298 0.310575,-2.17518 v -0.82562 c 0,-0.82868 -0.103371,-1.55701 -0.310575,-2.185 -0.200732,-0.62798 -0.488986,-1.15192 -0.864548,-1.57273 -0.375561,-0.42081 -0.829158,-0.73806 -1.360123,-0.9517 -0.524492,-0.2201 -1.116684,-0.33015 -1.777152,-0.33015 z m 16.094108,0 c -0.699321,0 -1.317743,0.11005 -1.855184,0.33015 -0.537442,0.21364 -0.984352,0.53372 -1.340487,0.961 -0.356136,0.42729 -0.62819,0.9618 -0.815971,1.6027 -0.181304,0.63447 -0.271818,1.37566 -0.271818,2.22374 v 0.99045 c 0,0.75746 0.100543,1.43387 0.301274,2.02947 0.20073,0.58914 0.495154,1.09072 0.883667,1.50505 0.388511,0.40786 0.867821,0.71895 1.437638,0.93257 0.569817,0.21366 1.220638,0.32035 1.952336,0.32035 0.595718,0 1.126453,-0.0709 1.592667,-0.2134 0.472689,-0.14889 0.874343,-0.3399 1.204578,-0.57297 0.33671,-0.23306 0.598734,-0.4665 0.786515,-0.69957 l -1.194759,-1.81557 c -0.265483,0.29782 -0.588964,0.52405 -0.971,0.67942 -0.375562,0.1489 -0.780558,0.22372 -1.214396,0.22372 -0.297859,0 -0.559883,-0.0357 -0.786515,-0.10695 -0.220156,-0.0777 -0.407869,-0.20392 -0.563274,-0.37871 -0.155405,-0.18128 -0.272147,-0.42423 -0.349849,-0.72851 -0.0591,-0.23634 -0.08817,-0.53442 -0.102319,-0.86438 h 5.366597 v -1.38828 c 0,-0.84163 -0.09051,-1.57664 -0.271818,-2.20462 -0.17483,-0.63446 -0.433512,-1.15892 -0.776697,-1.57326 -0.343186,-0.42079 -0.767725,-0.73471 -1.27279,-0.94187 -0.505065,-0.20717 -1.0844,-0.31053 -1.738395,-0.31053 z m 19.513021,0 c -0.602194,0 -1.146303,0.0872 -1.631942,0.26196 -0.479164,0.16832 -0.890332,0.40793 -1.233517,0.71868 -0.343185,0.31075 -0.60521,0.67327 -0.786515,1.08759 -0.181306,0.40787 -0.271819,0.848 -0.271819,1.3206 h 2.962094 c 0,-0.25896 0.02623,-0.47235 0.07803,-0.64068 0.05828,-0.17479 0.152133,-0.30437 0.281636,-0.38853 0.129504,-0.0906 0.290986,-0.13588 0.485242,-0.13588 0.20073,0 0.36273,0.0386 0.485758,0.11625 0.123033,0.0777 0.213545,0.20392 0.271818,0.37871 0.05827,0.16833 0.08785,0.40794 0.08785,0.71869 v 0.84474 h -0.58291 c -0.757598,0 -1.40842,0.0877 -1.952337,0.26247 -0.537441,0.16834 -0.974319,0.40794 -1.31103,0.71869 -0.33671,0.31075 -0.586394,0.67941 -0.748275,1.10671 -0.161879,0.42727 -0.24288,0.89698 -0.24288,1.40843 0,0.66681 0.136286,1.23318 0.408245,1.69932 0.278433,0.46612 0.64717,0.81911 1.106909,1.05864 0.466215,0.23955 0.977924,0.35909 1.53479,0.35909 0.375561,0 0.692872,-0.0648 0.95188,-0.19428 0.259007,-0.12301 0.475776,-0.2878 0.650607,-0.49496 0.124103,-0.14181 0.227663,-0.29408 0.321427,-0.45105 0.06397,0.3618 0.147193,0.68483 0.261483,0.94601 h 2.96261 v -0.16481 c -0.12303,-0.26543 -0.22023,-0.57651 -0.291455,-0.93258 -0.06475,-0.36253 -0.09715,-0.86413 -0.09715,-1.50505 v -4.63192 c 0,-0.82868 -0.161999,-1.49557 -0.485759,-2.00054 -0.323759,-0.51144 -0.763983,-0.88395 -1.320849,-1.11703 -0.556868,-0.23305 -1.188145,-0.34927 -1.893941,-0.34927 z m -35.60713,2.39837 c 0.213682,0 0.404738,0.0519 0.573092,0.15552 0.174831,0.10358 0.317286,0.26221 0.427364,0.47585 0.116558,0.21365 0.203727,0.48847 0.262,0.82512 0.06475,0.33016 0.09715,0.72506 0.09715,1.18472 v 0.82562 c 0,0.46613 -0.02571,0.86771 -0.07751,1.20436 -0.04533,0.33665 -0.11964,0.61149 -0.223242,0.82512 -0.103604,0.21364 -0.243232,0.36892 -0.418063,0.46603 -0.168355,0.0971 -0.375093,0.1457 -0.62115,0.1457 -0.213681,0 -0.404736,-0.0486 -0.573092,-0.1457 -0.16188,-0.0971 -0.301509,-0.25239 -0.418062,-0.46603 -0.116552,-0.21363 -0.207065,-0.48847 -0.271818,-0.82512 -0.05827,-0.33665 -0.08733,-0.73823 -0.08733,-1.20436 v -0.82562 c 0,-0.45966 0.02906,-0.85456 0.08733,-1.18472 0.06475,-0.33665 0.152437,-0.61147 0.262516,-0.82512 0.116553,-0.21364 0.255666,-0.37227 0.417545,-0.47585 0.168356,-0.10359 0.356068,-0.15552 0.563274,-0.15552 z m 16.074472,0 c 0.271958,0 0.495412,0.0581 0.670243,0.17464 0.17483,0.11005 0.304429,0.29156 0.388607,0.54405 0.08418,0.25248 0.12609,0.59211 0.12609,1.01938 v 0.29139 h -2.459281 c 0.008,-0.18459 0.0072,-0.40603 0.0217,-0.56316 0.03885,-0.34959 0.103651,-0.6311 0.194303,-0.84475 0.09065,-0.21365 0.219736,-0.36893 0.38809,-0.46603 0.174831,-0.10359 0.398285,-0.15552 0.670244,-0.15552 z m 19.707324,3.57378 h 0.553971 v 2.12248 c -0.09105,0.15061 -0.224643,0.28251 -0.408245,0.39266 -0.187778,0.11006 -0.417405,0.16482 -0.689363,0.16482 -0.155405,0 -0.29169,-0.0324 -0.408244,-0.0971 -0.116554,-0.0647 -0.210409,-0.17144 -0.281637,-0.32033 -0.06475,-0.15538 -0.09715,-0.36594 -0.09715,-0.63138 0,-0.21363 0.02623,-0.41751 0.07803,-0.61172 0.0518,-0.19422 0.132284,-0.36569 0.242363,-0.5146 0.110078,-0.15537 0.246364,-0.27826 0.408243,-0.3689 0.168356,-0.0906 0.368924,-0.13589 0.602031,-0.13589 z m 7.303946,1.6895 c -0.505065,0 -0.912888,0.15247 -1.223698,0.45674 -0.310809,0.29782 -0.466122,0.67316 -0.466122,1.12633 0,0.44024 0.155314,0.81225 0.466122,1.11652 0.31081,0.29781 0.718633,0.44692 1.223698,0.44692 0.518015,0 0.929183,-0.14911 1.233516,-0.44692 0.31081,-0.30427 0.466638,-0.67963 0.466638,-1.12632 0,-0.44672 -0.155828,-0.81871 -0.466638,-1.11653 -0.304333,-0.30427 -0.715501,-0.45674 -1.233516,-0.45674 z" /></g></svg>
